HIERARCHY
ROOT Hips
{
	OFFSET 0.000000 0.000000 0.000000
	CHANNELS 6 Xposition Yposition Zposition Zrotation Yrotation Xrotation 
	JOINT LHipJoint
	{
		OFFSET 0.000000 0.000000 0.000000
		CHANNELS 3 Zrotation Yrotation Xrotation
		JOINT LeftUpLeg
		{
			OFFSET 1.363060 -1.794630 0.839290
			CHANNELS 3 Zrotation Yrotation Xrotation
			JOINT LeftLeg
			{
				OFFSET 2.448110 -6.726130 0.000000
				CHANNELS 3 Zrotation Yrotation Xrotation
				JOINT LeftFoot
				{
					OFFSET 2.562200 -7.039590 0.000000
					CHANNELS 3 Zrotation Yrotation Xrotation
					JOINT LeftToeBase
					{
						OFFSET 0.157640 -0.433110 2.322550
						CHANNELS 3 Zrotation Yrotation Xrotation
						End Site
						{
							OFFSET 0.000000 0.000000 0.000000
						}
					}
				}
			}
		}
	}
	JOINT RHipJoint
	{
		OFFSET 0.000000 0.000000 0.000000
		CHANNELS 3 Zrotation Yrotation Xrotation
		JOINT RightUpLeg
		{
			OFFSET -1.305520 -1.794630 0.839290
			CHANNELS 3 Zrotation Yrotation Xrotation
			JOINT RightLeg
			{
				OFFSET -2.542530 -6.985550 0.000000
				CHANNELS 3 Zrotation Yrotation Xrotation
				JOINT RightFoot
				{
					OFFSET -2.568260 -7.056230 0.000000
					CHANNELS 3 Zrotation Yrotation Xrotation
					JOINT RightToeBase
					{
						OFFSET -0.164730 -0.452590 2.363150
						CHANNELS 3 Zrotation Yrotation Xrotation
						End Site
						{
							OFFSET 0.000000 0.000000 0.000000
						}
					}
				}
			}
		}
	}
	JOINT LowerBack
	{
		OFFSET 0.000000 0.000000 0.000000
		CHANNELS 3 Zrotation Yrotation Xrotation
		JOINT Spine
		{
			OFFSET 0.028270 2.035590 -0.193380
			CHANNELS 3 Zrotation Yrotation Xrotation
			JOINT Spine1
			{
				OFFSET 0.056720 2.048850 -0.042750
				CHANNELS 3 Zrotation Yrotation Xrotation
				JOINT Neck
				{
					OFFSET 0.000000 0.000000 0.000000
					CHANNELS 3 Zrotation Yrotation Xrotation
					JOINT Neck1
					{
						OFFSET -0.054170 1.746240 0.172020
						CHANNELS 3 Zrotation Yrotation Xrotation
						JOINT Head
						{
							OFFSET 0.104070 1.761360 -0.123970
							CHANNELS 3 Zrotation Yrotation Xrotation
							End Site
							{
								OFFSET 0.000000 0.000000 0.000000
							}
						}
					}
				}
				JOINT LeftShoulder
				{
					OFFSET 0.000000 0.000000 0.000000
					CHANNELS 3 Zrotation Yrotation Xrotation
					JOINT LeftArm
					{
						OFFSET 3.362410 1.200890 -0.311210
						CHANNELS 3 Zrotation Yrotation Xrotation
						JOINT LeftForeArm
						{
							OFFSET 4.983000 -0.000000 -0.000000
							CHANNELS 3 Zrotation Yrotation Xrotation
							JOINT LeftHand
							{
								OFFSET 3.483560 -0.000000 -0.000000
								CHANNELS 3 Zrotation Yrotation Xrotation
								JOINT LeftFingerBase
								{
									OFFSET 0.000000 0.000000 0.000000
									CHANNELS 3 Zrotation Yrotation Xrotation
									JOINT LeftHandIndex1
									{
										OFFSET 0.715260 -0.000000 -0.000000
										CHANNELS 3 Zrotation Yrotation Xrotation
										End Site
										{
											OFFSET 0.000000 0.000000 0.000000
										}
									}
								}
								JOINT LThumb
								{
									OFFSET 0.000000 0.000000 0.000000
									CHANNELS 3 Zrotation Yrotation Xrotation
									End Site
									{
										OFFSET 0.000000 0.000000 0.000000
									}
								}
							}
						}
					}
				}
				JOINT RightShoulder
				{
					OFFSET 0.000000 0.000000 0.000000
					CHANNELS 3 Zrotation Yrotation Xrotation
					JOINT RightArm
					{
						OFFSET -3.136600 1.374050 -0.404650
						CHANNELS 3 Zrotation Yrotation Xrotation
						JOINT RightForeArm
						{
							OFFSET -5.241900 -0.000000 -0.000000
							CHANNELS 3 Zrotation Yrotation Xrotation
							JOINT RightHand
							{
								OFFSET -3.444170 -0.000000 -0.000000
								CHANNELS 3 Zrotation Yrotation Xrotation
								JOINT RightFingerBase
								{
									OFFSET 0.000000 0.000000 0.000000
									CHANNELS 3 Zrotation Yrotation Xrotation
									JOINT RightHandIndex1
									{
										OFFSET -0.622530 -0.000000 -0.000000
										CHANNELS 3 Zrotation Yrotation Xrotation
										End Site
										{
											OFFSET 0.000000 0.000000 0.000000
										}
									}
								}
								JOINT RThumb
								{
									OFFSET 0.000000 0.000000 0.000000
									CHANNELS 3 Zrotation Yrotation Xrotation
									End Site
									{
										OFFSET 0.000000 0.000000 0.000000
									}
								}
							}
						}
					}
				}
			}
		}
	}
}
MOTION
Frames: 7
Frame Time: 0.008333
5.685264 17.792597 40.860001 177.630229 1.351867 -137.531272 5.042760 -6.559865 -10.095635 -10.307545 -19.303841 -46.480034 -2.587281 12.932843 22.388116 -3.198570 14.820631 11.191256 0.403100 -4.076200 -11.291100 -9.009638 3.358530 -8.188534 15.163734 8.435679 -55.876241 -10.854121 -24.939584 64.919477 3.473552 -12.315376 10.643891 -0.012000 0.706900 -1.942500 0.177653 -3.342088 -1.786794 4.467970 2.029975 -42.925809 -0.627327 2.817054 -4.721317 -5.422905 -6.547744 -18.938061 0.610702 -2.569589 29.546912 -0.308000 0.429500 18.142800 -11.586180 -10.025920 2.657839 -78.384146 17.894607 34.504389 28.684820 -34.955812 -7.872871 -0.043434 2.248146 4.797762 5.902564 27.502633 2.632700 -7.125000 0.000000 0.000000 -24.383300 53.641600 -5.432600 12.200792 11.935277 5.641550 73.205912 -28.574992 28.877433 -29.315222 31.726149 -5.866710 -0.453913 -4.529570 7.928683 -13.238824 -21.198372 3.907000 7.125000 0.000000 0.000000 13.481400 -46.458100 -0.493900 
5.670740 17.788803 40.745979 177.745192 1.416564 -137.416672 5.078182 -6.547677 -10.054971 -10.372270 -19.320533 -46.343190 -2.527224 13.008721 22.658323 -3.322911 14.928489 10.634834 0.403700 -4.079300 -11.299700 -9.148040 3.342318 -8.251070 15.041819 8.707204 -56.945799 -10.737800 -25.086803 64.771583 3.343990 -11.889049 10.217788 -0.020500 0.924100 -2.539900 0.390799 -3.308194 -1.881006 4.536743 2.070107 -42.915576 -0.703935 2.821897 -4.663607 -5.404073 -6.533191 -18.939286 0.630986 -2.508169 29.641291 -0.291500 0.471800 18.212100 -11.601181 -10.020228 2.666649 -78.112429 17.446767 35.002829 28.850460 -35.135412 -7.968936 -0.034897 2.255523 4.626382 6.078967 27.671958 2.718500 -7.125000 0.000000 0.000000 -24.326400 53.815900 -5.525500 12.201953 11.942785 5.647415 73.237973 -28.732167 28.606995 -29.351204 31.717977 -5.859600 -0.386045 -4.528232 7.691174 -12.895859 -21.194276 3.820800 7.125000 0.000000 0.000000 13.755100 -46.429600 -0.494500 
5.658059 17.787611 40.630115 177.847305 1.475657 -137.375740 5.052921 -6.536171 -10.007891 -10.506984 -19.231330 -46.037334 -2.493890 12.998463 22.801214 -3.388716 14.916350 10.217219 0.392500 -4.022700 -11.140600 -9.245782 3.329134 -8.308884 14.943500 8.940554 -57.843854 -10.498126 -25.166051 64.285434 3.205323 -11.482392 9.978691 -0.031600 1.148200 -3.156600 0.609664 -3.219093 -1.918783 4.463967 2.097259 -42.879697 -0.819875 2.825400 -4.596736 -5.305823 -6.546071 -19.046123 0.656694 -2.512411 29.770494 -0.291400 0.500800 18.326100 -11.607447 -10.020358 2.686755 -77.756920 16.943664 35.473375 28.948394 -35.242051 -8.021142 0.001637 2.248085 4.552412 6.497360 27.504912 2.865100 -7.125000 0.000000 0.000000 -23.863700 53.735900 -5.362600 12.202301 11.955904 5.638669 73.437110 -28.806148 28.160554 -29.310621 31.653023 -5.837390 -0.371797 -4.526382 7.673355 -12.809010 -21.141446 3.787800 7.125000 0.000000 0.000000 13.808100 -46.372600 -0.476700 
5.653832 17.799317 40.503954 177.793612 1.351658 -137.607327 4.944135 -6.474595 -9.920850 -10.978983 -19.005482 -45.495585 -2.460449 12.942553 23.035427 -3.309058 14.510356 9.812668 0.398900 -4.055000 -11.231400 -9.267874 3.332672 -8.369102 14.785035 9.039106 -58.296898 -10.161253 -25.145769 63.589820 3.005214 -10.838849 9.378499 -0.052600 1.479500 -4.069300 0.575537 -3.298166 -1.851381 4.618885 1.989599 -42.773622 -0.738663 2.704484 -4.489234 -5.388374 -6.558803 -18.994896 0.690744 -2.472960 29.852612 -0.248900 0.517600 18.364600 -11.631702 -10.030242 2.692503 -77.647205 16.549933 35.613813 29.068138 -35.365063 -8.089064 0.043391 2.251488 4.509130 6.984897 27.487589 3.054100 -7.125000 0.000000 0.000000 -23.421800 53.793800 -5.288400 12.189205 11.949613 5.638524 73.408790 -28.896897 27.929471 -29.208062 31.516271 -5.782164 -0.390512 -4.498252 7.744566 -12.844303 -20.844391 3.732400 7.125000 0.000000 0.000000 13.707300 -46.108200 -0.382000 
5.645486 17.797149 40.385596 177.851999 1.378875 -137.602654 4.918551 -6.443851 -9.868858 -11.233125 -18.818465 -45.216502 -2.423255 12.941928 23.248616 -3.307431 14.333435 9.386544 0.399900 -4.060200 -11.246000 -9.340798 3.334091 -8.430123 14.601153 9.305051 -59.047316 -9.811021 -25.165726 62.824106 2.831495 -10.350930 9.091855 -0.067500 1.676200 -4.611700 0.659846 -3.289366 -1.891438 4.684631 1.995271 -42.732994 -0.750969 2.685710 -4.417741 -5.392903 -6.569339 -19.004410 0.726268 -2.450538 29.944772 -0.222200 0.541200 18.432600 -11.647857 -10.029114 2.702285 -77.425934 16.102541 35.887795 29.194181 -35.501965 -8.167220 0.048611 2.264959 4.399091 7.125005 27.738343 3.138200 -7.125000 0.000000 0.000000 -23.438000 54.033500 -5.433300 12.184020 11.955355 5.637281 73.477134 -28.995245 27.612743 -29.179584 31.463971 -5.769645 -0.376645 -4.504360 7.695840 -12.785275 -20.863779 3.721800 7.125000 0.000000 0.000000 13.756000 -46.117300 -0.386600 
5.638224 17.793139 40.267456 177.918207 1.423103 -137.574425 4.899662 -6.415053 -9.819599 -11.468497 -18.621196 -44.968718 -2.386054 12.946989 23.463861 -3.300108 14.152120 8.959419 0.398900 -4.055000 -11.231500 -9.407055 3.341768 -8.492653 14.384998 9.607780 -59.767958 -9.390116 -25.154227 61.866152 2.658288 -9.895131 8.877934 -0.082600 1.854200 -5.102900 0.730961 -3.281519 -1.942538 4.760762 2.014697 -42.700976 -0.756846 2.678927 -4.353898 -5.392125 -6.570848 -19.001205 0.759572 -2.419493 30.023373 -0.196800 0.568000 18.488500 -11.664538 -10.026221 2.710830 -77.222102 15.658646 36.105404 29.324284 -35.644199 -8.251130 0.041615 2.284874 4.257711 7.162835 28.124103 3.198300 -7.125000 0.000000 0.000000 -23.623700 54.374600 -5.682100 12.178963 11.960755 5.636765 73.537403 -29.090736 27.311804 -29.165066 31.429713 -5.767241 -0.365065 -4.516954 7.635092 -12.758265 -20.937410 3.730300 7.125000 0.000000 0.000000 13.791900 -46.176100 -0.408000 
5.631721 17.787069 40.148990 177.990066 1.471940 -137.539480 4.890028 -6.386665 -9.768895 -11.672556 -18.454327 -44.752025 -2.336932 12.980841 23.732363 -3.304413 13.994734 8.476437 0.397800 -4.049700 -11.216500 -9.466910 3.353112 -8.556340 14.147633 9.930316 -60.444702 -8.915672 -25.110512 60.759993 2.495081 -9.492064 8.699403 -0.096500 2.003700 -5.515900 0.798830 -3.278117 -1.982335 4.854336 2.040845 -42.676679 -0.759980 2.675342 -4.306839 -5.382831 -6.557485 -18.988647 0.783422 -2.371316 30.087695 -0.177100 0.600100 18.531400 -11.682332 -10.021550 2.718094 -77.041786 15.220125 36.267965 29.462709 -35.794425 -8.341111 0.031885 2.306791 4.066368 7.201021 28.548924 3.263600 -7.125000 0.000000 0.000000 -23.836400 54.749200 -5.961000 12.175090 11.964614 5.638228 73.578473 -29.186929 27.035171 -29.175474 31.421280 -5.775409 -0.348912 -4.532617 7.545216 -12.720835 -21.046265 3.743800 7.125000 0.000000 0.000000 13.845100 -46.266200 -0.441000 
